<?xml version="1.0" encoding="UTF-8" standalone="no"?>
<!-- Created with Inkscape (http://www.inkscape.org/) -->

<svg
   xmlns:dc="http://purl.org/dc/elements/1.1/"
   xmlns:cc="http://creativecommons.org/ns#"
   xmlns:rdf="http://www.w3.org/1999/02/22-rdf-syntax-ns#"
   xmlns:svg="http://www.w3.org/2000/svg"
   xmlns="http://www.w3.org/2000/svg"
   xmlns:sodipodi="http://sodipodi.sourceforge.net/DTD/sodipodi-0.dtd"
   xmlns:inkscape="http://www.inkscape.org/namespaces/inkscape"
   width="600"
   height="900"
   id="svg2"
   version="1.1"
   inkscape:version="0.48.4 r9939"
   sodipodi:docname="react-native-cover.svg"
   inkscape:export-filename="/home/atila/projetos/react-native-docs/epub/cover.png"
   inkscape:export-xdpi="90"
   inkscape:export-ydpi="90">
  <defs
     id="defs4" />
  <sodipodi:namedview
     id="base"
     pagecolor="#ffffff"
     bordercolor="#666666"
     borderopacity="1.0"
     inkscape:pageopacity="0.0"
     inkscape:pageshadow="2"
     inkscape:zoom="0.59222222"
     inkscape:cx="60.225141"
     inkscape:cy="475.32833"
     inkscape:document-units="px"
     inkscape:current-layer="Layer_1"
     showgrid="false"
     inkscape:showpageshadow="false"
     inkscape:window-width="1366"
     inkscape:window-height="744"
     inkscape:window-x="0"
     inkscape:window-y="0"
     inkscape:window-maximized="1" />
  <metadata
     id="metadata7">
    <rdf:RDF>
      <cc:Work
         rdf:about="">
        <dc:format>image/svg+xml</dc:format>
        <dc:type
           rdf:resource="http://purl.org/dc/dcmitype/StillImage" />
        <dc:title></dc:title>
      </cc:Work>
    </rdf:RDF>
  </metadata>
  <g
     inkscape:groupmode="layer"
     id="layer2"
     inkscape:label="bg"
     sodipodi:insensitive="true">
    <rect
       style="fill:#05a5df;fill-opacity:1;stroke:none"
       id="rect3027"
       width="600"
       height="900"
       x="0"
       y="0" />
  </g>
  <g
     inkscape:label="Camada 1"
     inkscape:groupmode="layer"
     id="layer1"
     transform="translate(0,-152.36218)">
    <g
       transform="matrix(0.48604141,0,0,0.48604141,161.70712,478.37334)"
       id="Layer_1"
       style="fill:#ffffff">
      <path
         style="fill:#ffffff"
         inkscape:connector-curvature="0"
         d="m 334.696,254.628 c 0,27.706 -22.461,50.167 -50.167,50.167 -27.706,0 -50.167,-22.461 -50.167,-50.167 0,-27.706 22.461,-50.167 50.167,-50.167 27.706,0 50.167,22.461 50.167,50.167 z"
         id="path8" />
      <path
         style="fill-opacity:0;stroke:#ffffff;stroke-width:24;stroke-miterlimit:10;fill:#ffffff;stroke-opacity:1"
         inkscape:connector-curvature="0"
         d="m 284.529,152.628 c 67.356,0 129.928,9.665 177.107,25.907 56.844,19.569 91.794,49.233 91.794,76.093 0,27.991 -37.041,59.503 -98.083,79.728 -46.151,15.291 -106.879,23.272 -170.818,23.272 -65.554,0 -127.63,-7.492 -174.29,-23.441 -59.046,-20.182 -94.611,-52.103 -94.611,-79.559 0,-26.642 33.37,-56.076 89.415,-75.616 47.355,-16.509 111.472,-26.384 179.486,-26.384 z"
         stroke-miterlimit="10"
         id="path10" />
      <path
         style="fill-opacity:0;stroke:#ffffff;stroke-width:24;stroke-miterlimit:10;fill:#f9f9f9;stroke-opacity:1"
         inkscape:connector-curvature="0"
         d="m 195.736,203.922 c 33.649,-58.348 73.281,-107.724 110.92,-140.48 45.35,-39.466 88.507,-54.923 111.775,-41.505 24.248,13.983 33.042,61.814 20.067,124.796 -9.81,47.618 -33.234,104.212 -65.176,159.601 -32.749,56.788 -70.25,106.819 -107.377,139.272 -46.981,41.068 -92.4,55.929 -116.185,42.213 -23.079,-13.31 -31.906,-56.921 -20.834,-115.233 9.355,-49.27 32.832,-109.745 66.81,-168.664 z"
         stroke-miterlimit="10"
         id="path12" />
      <path
         style="fill-opacity:0;stroke:#ffffff;stroke-width:24;stroke-miterlimit:10;fill:#ffffff;stroke-opacity:1"
         inkscape:connector-curvature="0"
         d="M 195.821,306.482 C 162.075,248.19 139.09,189.195 129.509,140.227 117.965,81.228 126.127,36.118 149.373,22.661 c 24.224,-14.024 70.055,2.244 118.14,44.94 36.356,32.28 73.688,80.837 105.723,136.173 32.844,56.733 57.461,114.209 67.036,162.582 12.117,61.213 2.309,107.984 -21.453,121.74 C 395.762,501.444 353.57,487.312 308.58,448.597 270.567,415.886 229.898,365.344 195.821,306.482 z"
         stroke-miterlimit="10"
         id="path14" />
    </g>
    <text
       sodipodi:linespacing="125%"
       id="text3816"
       y="433.92215"
       x="28.122952"
       style="font-size:95.32582855px;font-style:normal;font-variant:normal;font-weight:900;font-stretch:normal;text-align:start;line-height:125%;letter-spacing:0px;word-spacing:0px;writing-mode:lr-tb;text-anchor:start;fill:#000000;fill-opacity:1;stroke:none;font-family:Roboto;-inkscape-font-specification:Roboto Heavy"
       xml:space="preserve"><tspan
         id="tspan3818"
         y="433.92215"
         x="28.122952"
         sodipodi:role="line">React Native</tspan></text>
    <text
       xml:space="preserve"
       style="font-size:95.32582855000001132px;font-style:normal;font-variant:normal;font-weight:900;font-stretch:normal;text-align:start;line-height:125%;letter-spacing:0px;word-spacing:0px;writing-mode:lr-tb;text-anchor:start;fill:#ffffff;fill-opacity:1;stroke:none;font-family:Roboto;-inkscape-font-specification:Roboto Heavy"
       x="24.122952"
       y="429.92215"
       id="text3019"
       sodipodi:linespacing="125%"><tspan
         sodipodi:role="line"
         x="24.122952"
         y="429.92215"
         id="tspan3023">React Native</tspan></text>
  </g>
</svg>
